<svg height="512" viewBox="0 0 495.4 495.4" width="512" xmlns="http://www.w3.org/2000/svg"><g fill="#fff"><path d="m185 381.5c-22.9 0-41.4 18.5-41.4 41.4s18.5 41.4 41.4 41.4c22.8 0 41.4-18.5 41.4-41.4s-18.5-41.4-41.4-41.4z"/><path d="m365.6 381.5c-22.9 0-41.4 18.5-41.4 41.4s18.5 41.4 41.4 41.4c22.8 0 41.4-18.5 41.4-41.4s-18.5-41.4-41.4-41.4z"/><path d="m469.6 154.7h-229.2c-11.5 0-20.7 9.3-20.7 20.8s9.3 20.8 20.8 20.8h202.8l-12.9 43.5h-206.2c-10.6 0-19.2 8.6-19.2 19.3 0 10.6 8.6 19.3 19.3 19.3l194.8.1-12.1 40.7h-232.5l-15.5-123-14.7-119.7c-1.2-9.5-8.1-17.3-17.3-19.6l-98-25c-12.4-3.2-25.1 4.3-28.3 16.7s4.3 25.1 16.8 28.3l82.7 21.1 32.2 241.6s1.1 28.2 26.7 28.2h256.8c21.5 0 25.7-22.4 25.7-22.4l50.9-151.2c-.1 0 15-39.5-22.9-39.5z"/></g></svg>